<?xml version="1.0" encoding="UTF-8" standalone="no"?>
<!-- Created with Inkscape (http://www.inkscape.org/) -->

<svg
   xmlns:dc="http://purl.org/dc/elements/1.1/"
   xmlns:cc="http://creativecommons.org/ns#"
   xmlns:rdf="http://www.w3.org/1999/02/22-rdf-syntax-ns#"
   xmlns:svg="http://www.w3.org/2000/svg"
   xmlns="http://www.w3.org/2000/svg"
   xmlns:sodipodi="http://sodipodi.sourceforge.net/DTD/sodipodi-0.dtd"
   xmlns:inkscape="http://www.inkscape.org/namespaces/inkscape"
   width="10.593669mm"
   height="8.2636814mm"
   viewBox="0 0 10.593669 8.2636814"
   version="1.1"
   id="svg8"
   inkscape:version="0.92.4 (5da689c313, 2019-01-14)"
   sodipodi:docname="exchange-icon.svg">
  <defs
     id="defs2" />
  <sodipodi:namedview
     id="base"
     pagecolor="#ffffff"
     bordercolor="#666666"
     borderopacity="1.0"
     inkscape:pageopacity="0.0"
     inkscape:pageshadow="2"
     inkscape:zoom="3.959798"
     inkscape:cx="57.690348"
     inkscape:cy="-65.689522"
     inkscape:document-units="mm"
     inkscape:current-layer="layer1"
     showgrid="false"
     fit-margin-top="0"
     fit-margin-left="0"
     fit-margin-right="0"
     fit-margin-bottom="0"
     inkscape:window-width="2560"
     inkscape:window-height="1377"
     inkscape:window-x="1912"
     inkscape:window-y="-8"
     inkscape:window-maximized="1" />
  <metadata
     id="metadata5">
    <rdf:RDF>
      <cc:Work
         rdf:about="">
        <dc:format>image/svg+xml</dc:format>
        <dc:type
           rdf:resource="http://purl.org/dc/dcmitype/StillImage" />
        <dc:title />
      </cc:Work>
    </rdf:RDF>
  </metadata>
  <g
     inkscape:label="Layer 1"
     inkscape:groupmode="layer"
     id="layer1"
     transform="translate(-1.5032159,-1.6254209)">
    <path
       inkscape:connector-curvature="0"
       id="path819"
       style="font-style:normal;font-variant:normal;font-weight:normal;font-stretch:normal;font-size:40px;line-height:1.25;font-family:'Font Awesome 5 Free';-inkscape-font-specification:'Font Awesome 5 Free';font-variant-ligatures:normal;font-variant-caps:normal;font-variant-numeric:normal;font-feature-settings:normal;text-align:start;letter-spacing:0px;word-spacing:0px;writing-mode:lr-tb;text-anchor:start;fill:#f6fdfe;fill-opacity:1;stroke:none;stroke-width:0.26458332"
       d="m 1.5135511,3.9328795 c 0,0.2893881 0.2067057,0.4960911 0.4960938,0.4960911 H 9.451051 v 0.9921875 c 0,0.4547526 0.5167643,0.6614583 0.826823,0.3514011 L 11.93152,4.1189134 c 0.206705,-0.1860339 0.206705,-0.4960938 0,-0.6821276 L 10.277874,1.78314 C 9.9678153,1.4524108 9.451051,1.6797858 9.451051,2.1138691 V 3.1060566 H 2.0096449 c -0.2893881,0 -0.4960938,0.227375 -0.4960938,0.4960938 z M 11.600791,7.0748039 H 4.1593844 V 6.0826164 c 0,-0.4340807 -0.5374349,-0.6614583 -0.8474935,-0.3307291 L 1.6582451,7.4055331 c -0.2067057,0.1860365 -0.2067057,0.4960937 0,0.6821302 L 3.3118909,9.7413091 C 3.6219495,10.051366 4.1593844,9.8446607 4.1593844,9.3899081 V 8.3977206 h 7.4414066 c 0.268717,0 0.496093,-0.2067057 0.496093,-0.4960938 V 7.5708977 c 0,-0.2687161 -0.227376,-0.4960938 -0.496093,-0.4960938 z" />
  </g>
</svg>
