<?xml version="1.0" encoding="UTF-8"?>
<svg width="69.731mm"
     height="16.655mm"
     version="1.1"
     viewBox="0 0 69.731 16.655"
     xmlns="http://www.w3.org/2000/svg">
 <g transform="translate(-18.429 -32.972)">
  <path transform="matrix(.26458 0 0 .26458 18.429 32.972)"
        d="m1.4648 0a1.4663 1.4663 0 0 0-1.4648 1.4648v8.2207 37.271a1.4663 1.4663 0 0 0 1.4648 1.4648h8.2207 37.271a1.4663 1.4663 0 0 0 1.4648-1.4648v-8.2188-37.273a1.4663 1.4663 0 0 0-1.4648-1.4648h-37.271-8.2207zm8.2207 9.6855h29.053v29.053l-29.053-29.053zm45.045 4.8398a1.4663 1.4663 0 0 0-1.4648 1.4668v8.2188 27.588a1.4663 1.4663 0 0 1-1.4668 1.4648h-35.807a1.4663 1.4663 0 0 0-1.4648 1.4648v6.7539a1.4663 1.4663 0 0 0 1.4648 1.4668h8.2207 37.27a1.4663 1.4663 0 0 0 1.4668-1.4668v-8.2168-37.273a1.4663 1.4663 0 0 0-1.4668-1.4668h-6.752zm87.334 4.1992v25.229h5.2227v-7.7344h1.0117c0.33688 0 0.58899 0.044813 0.75781 0.13477 0.16958 0.078639 0.33401 0.25819 0.49024 0.53906l3.3027 6.1836c0.17965 0.32582 0.41046 0.5566 0.69141 0.69141 0.29203 0.12346 0.63402 0.18555 1.0273 0.18555h4.7188l-4.9219-8.3594c-0.37089-0.62914-0.809-1.1336-1.3144-1.5156 0.29228-0.17968 0.56167-0.38267 0.8086-0.60742 0.25776-0.2247 0.49481-0.48328 0.70898-0.77539l4.5156-6.2188h-4.7852c-0.40441 0-0.74211 0.068322-1.0117 0.20313-0.25776 0.13483-0.48233 0.34854-0.67383 0.64062l-3.3027 4.9199c-0.15824 0.23584-0.32696 0.40028-0.50586 0.49024-0.16857 0.089953-0.41639 0.13476-0.74219 0.13476h-0.77539v-14.139l-5.2227-0.001953zm-58.654 0.001953v25.227h3.4727c0.33764 0 0.60702-0.066369 0.80859-0.20117 0.21392-0.13483 0.35939-0.38268 0.4375-0.74219l0.18555-0.87695c0.26961 0.30334 0.54548 0.58536 0.82617 0.84375 0.29228 0.25839 0.60648 0.48284 0.94336 0.67383 0.34847 0.17983 0.7245 0.31888 1.1289 0.41992 0.4155 0.10104 0.8814 0.15234 1.3984 0.15234 1.1122 0 2.1233-0.23078 3.0332-0.69141 0.9212-0.46062 1.7075-1.0998 2.3594-1.9199 0.66268-0.82013 1.1756-1.7862 1.5352-2.8984 0.37065-1.1122 0.55469-2.3262 0.55469-3.6406 0-1.4043-0.16249-2.6568-0.48828-3.7578-0.31446-1.101-0.75282-2.0285-1.3145-2.7812-0.56189-0.76397-1.2308-1.3431-2.0059-1.7363-0.77531-0.3932-1.6172-0.58984-2.5273-0.58984-1.1122 0-2.0848 0.19665-2.916 0.58984-0.82016 0.38198-1.5554 0.89478-2.207 1.5352v-9.6055h-5.2246zm94.264 7.4141c-0.94362 0-1.8136 0.2864-2.6113 0.85938s-1.518 1.3531-2.1582 2.3418l-0.28711-1.6348c-0.04536-0.22476-0.10189-0.41504-0.16992-0.57226-0.05544-0.15723-0.14412-0.28114-0.26758-0.37109-0.11339-0.10129-0.26056-0.1739-0.43946-0.21875-0.16831-0.044851-0.38015-0.066406-0.63867-0.066406h-3.1016v17.475h5.2266v-10.717c0.7864-1.4605 1.8656-2.1914 3.2363-2.1914 0.39332 0 0.7183 0.027795 0.97656 0.083984 0.25802 0.044851 0.48234 0.066406 0.67383 0.066406 0.22577 0 0.40552-0.044812 0.53906-0.13476 0.13355-0.10119 0.22418-0.26806 0.26954-0.50391l0.67382-3.8438c-0.48302-0.38198-1.1241-0.57227-1.9219-0.57227zm-66.926 0.066406c-1.337 0-2.5571 0.20933-3.6582 0.625-1.0898 0.4157-2.0326 1.01-2.8301 1.7852-0.78665 0.77521-1.3997 1.7198-1.8379 2.832-0.42684 1.101-0.64063 2.3427-0.64063 3.7246 0 1.3931 0.21379 2.65 0.64063 3.7734 0.43817 1.1122 1.0512 2.0632 1.8379 2.8496 0.79748 0.77518 1.7403 1.3758 2.8301 1.8027 1.1011 0.41567 2.3213 0.62305 3.6582 0.62305 1.3256 0 2.5333-0.20737 3.623-0.62305 1.0898-0.42694 2.0216-1.0276 2.7969-1.8027 0.78639-0.78642 1.3935-1.7374 1.8203-2.8496 0.43817-1.1235 0.65625-2.3803 0.65625-3.7734 0-1.3819-0.21808-2.6236-0.65625-3.7246-0.42683-1.1122-1.0339-2.0568-1.8203-2.832-0.77531-0.77518-1.7071-1.3695-2.7969-1.7852-1.0898-0.41567-2.2974-0.625-3.623-0.625zm19.551 0c-1.3367 0-2.5571 0.20933-3.6582 0.625-1.0898 0.4157-2.0323 1.01-2.8301 1.7852-0.7864 0.77521-1.3997 1.7198-1.8379 2.832-0.42684 1.101-0.63868 2.3427-0.63868 3.7246 0 1.3931 0.21184 2.65 0.63868 3.7734 0.43817 1.1122 1.0515 2.0632 1.8379 2.8496 0.79773 0.77518 1.7403 1.3758 2.8301 1.8027 1.1011 0.41567 2.3215 0.62305 3.6582 0.62305 1.3259 0 2.5333-0.20737 3.623-0.62305 1.0898-0.42694 2.0218-1.0276 2.7969-1.8027 0.78665-0.78642 1.3935-1.7374 1.8203-2.8496 0.43818-1.1235 0.65821-2.3803 0.65821-3.7734 0-1.3819-0.22003-2.6236-0.65821-3.7246-0.42683-1.1122-1.0337-2.0568-1.8203-2.832-0.77506-0.77518-1.7071-1.3695-2.7969-1.7852-1.0898-0.41567-2.2972-0.625-3.623-0.625zm59.074 0c-1.3362 2.3e-4 -2.5387 0.23101-3.6055 0.69141-1.056 0.46062-1.9603 1.0847-2.7129 1.8711-0.74155 0.78642-1.3143 1.7013-1.7188 2.7461-0.39333 1.0448-0.58985 2.1519-0.58985 3.3203 0 1.5504 0.23081 2.9097 0.69141 4.0781 0.47194 1.1684 1.1066 2.1452 1.9043 2.9316 0.80882 0.78642 1.7471 1.3826 2.8144 1.7871 1.0784 0.3932 2.2286 0.58984 3.4531 0.58984 0.5954 0 1.2195-0.044813 1.8711-0.13476 0.66293-0.07869 1.3211-0.22408 1.9726-0.4375 0.66293-0.22468 1.3021-0.52817 1.9199-0.91016 0.62916-0.39322 1.2147-0.89968 1.7539-1.5176l-1.5176-1.8711c-0.21342-0.30334-0.52787-0.45508-0.94336-0.45508-0.31471 0-0.61813 0.074562-0.91016 0.2207-0.28095 0.14617-0.59514 0.30863-0.94336 0.48828-0.33713 0.17965-0.72589 0.34214-1.1641 0.48828-0.43818 0.14614-0.95992 0.21875-1.5664 0.21875-1.1349 0-2.0624-0.32495-2.7812-0.97656-0.71886-0.66285-1.1613-1.725-1.3301-3.1855h10.076c0.23584 0 0.42807-0.027796 0.57421-0.083985 0.15622-0.056189 0.27844-0.15659 0.36914-0.30273 0.09071-0.14604 0.1528-0.34266 0.18555-0.58984 0.03276-0.24716 0.04883-0.56772 0.04883-0.96094 0-1.2583-0.19652-2.3824-0.58984-3.3711-0.38199-0.99989-0.92075-1.842-1.6172-2.5273-0.68536-0.6853-1.5103-1.2069-2.4766-1.5664-0.95416-0.3593-2.0095-0.54081-3.166-0.54102h-0.00195zm20.791 0c-0.56164 0-1.0834 0.057544-1.5664 0.16992-0.47194 0.10112-0.91629 0.24651-1.332 0.4375-0.4044 0.17975-0.78692 0.4042-1.1465 0.67383-0.35956 0.26963-0.70804 0.56237-1.0449 0.87695l-0.30274-1.0117c-0.0902-0.29201-0.24645-0.51011-0.4707-0.65625-0.21342-0.14614-0.4828-0.21875-0.80859-0.21875h-3.2363v17.475h5.2227v-12.453c0.46059-0.41567 0.94377-0.74696 1.4492-0.99414 0.50571-0.24718 1.0462-0.37109 1.6192-0.37109 0.76396 0 1.3413 0.24151 1.7344 0.72461 0.39332 0.47186 0.58984 1.1345 0.58984 1.9883v11.105h5.2246v-11.105c0-0.95494-0.12845-1.8376-0.38672-2.6465-0.25852-0.82013-0.64103-1.5213-1.1465-2.1055-0.5057-0.59545-1.1296-1.057-1.8711-1.3828-0.73021-0.33703-1.5724-0.50586-2.5274-0.50586zm17.125 0c-1.3361 2.3e-4 -2.537 0.23101-3.6035 0.69141-1.0563 0.46062-1.9603 1.0847-2.7129 1.8711-0.74155 0.78642-1.3163 1.7013-1.7207 2.7461-0.39332 1.0448-0.58984 2.1519-0.58984 3.3203 0 1.5504 0.23056 2.9097 0.69141 4.0781 0.47168 1.1684 1.1066 2.1452 1.9043 2.9316 0.80882 0.78642 1.7471 1.3826 2.8145 1.7871 1.0787 0.3932 2.2305 0.58984 3.4551 0.58984 0.59541 0 1.2195-0.044813 1.8711-0.13476 0.66267-0.07869 1.3189-0.22408 1.9707-0.4375 0.66268-0.22468 1.3038-0.52817 1.9219-0.91016 0.62891-0.39322 1.2125-0.89968 1.752-1.5176l-1.5156-1.8711c-0.21341-0.30334-0.52956-0.45508-0.94531-0.45508-0.31471 0-0.61812 0.074562-0.91015 0.2207-0.28095 0.14617-0.59514 0.30863-0.94336 0.48828-0.33689 0.17965-0.72394 0.34214-1.1621 0.48828-0.43818 0.14614-0.95967 0.21875-1.5664 0.21875-1.1346 0-2.0621-0.32495-2.7812-0.97656-0.71861-0.66285-1.1632-1.725-1.332-3.1855h10.078c0.23585 0 0.42613-0.027796 0.57227-0.083985 0.15622-0.056189 0.28038-0.15659 0.37109-0.30273 0.09071-0.14604 0.15279-0.34266 0.18555-0.58984 0.03276-0.24716 0.04883-0.56772 0.04883-0.96094 0-1.2583-0.19677-2.3824-0.58985-3.3711-0.38198-0.99989-0.92049-1.842-1.6172-2.5273-0.68536-0.6853-1.5125-1.2069-2.4785-1.5664-0.95441-0.3593-2.0095-0.54081-3.166-0.54102h-0.00196zm21.5 0.25391c-0.33688 0-0.63601 0.089877-0.89453 0.26953-0.25776 0.16852-0.42025 0.38223-0.48828 0.64062l-2.1894 7.8535c-0.16933 0.60666-0.34454 1.1902-0.52344 1.752-0.16958 0.5505-0.33206 1.1018-0.48828 1.6523-0.08819-0.5505-0.18935-1.1082-0.30274-1.6699-0.11338-0.56174-0.23755-1.1389-0.37109-1.7344l-1.752-7.8379c-0.05619-0.26958-0.21868-0.48768-0.48828-0.65625-0.26961-0.16857-0.59004-0.25195-0.96094-0.25195h-4.1797l5.4277 17.475h4.0449c0.57272 0 0.94251-0.29276 1.1113-0.87695l2.5273-8.6777c0.12346-0.39322 0.23156-0.78208 0.32226-1.1641 0.10079-0.3932 0.18947-0.78646 0.26758-1.1797 0.07811 0.38198 0.16875 0.7645 0.26953 1.1465 0.10079 0.38196 0.20693 0.77084 0.32032 1.1641l2.4941 8.7109c0.09071 0.31458 0.21487 0.53902 0.37109 0.67383 0.15773 0.1348 0.34801 0.20312 0.57227 0.20312h4.2461l5.4277-17.475h-3.9785c-0.33688 0-0.64055 0.083386-0.91016 0.25195-0.25927 0.16852-0.41527 0.38662-0.4707 0.65625l-1.8535 7.8379c-0.1474 0.6179-0.28833 1.2078-0.42187 1.7695-0.12347 0.5505-0.22961 1.1062-0.32031 1.668-0.14589-0.57298-0.30384-1.1414-0.47266-1.7031-0.15824-0.56174-0.31644-1.1389-0.47266-1.7344l-2.0898-7.8535c-0.06753-0.25834-0.2343-0.47206-0.50391-0.64062-0.25826-0.17965-0.57441-0.26953-0.94531-0.26953h-2.3242zm-59.316 3.3535h0.00195c0.56073 2.37e-4 1.0371 0.096355 1.4297 0.28711 0.39231 0.19099 0.70651 0.44323 0.94336 0.75781 0.24768 0.30332 0.42265 0.6517 0.52343 1.0449 0.11339 0.39322 0.16993 0.79722 0.16993 1.2129h-6.5215c0.17965-1.0673 0.54944-1.8816 1.1113-2.4434 0.56125-0.57258 1.3427-0.85898 2.3418-0.85938zm37.918 0c0.56164 0 1.0383 0.096117 1.4316 0.28711 0.39231 0.19099 0.7065 0.44323 0.94335 0.75781 0.24744 0.30332 0.42266 0.6517 0.52344 1.0449 0.11339 0.39322 0.16992 0.79722 0.16992 1.2129h-6.5234c0.1799-1.0673 0.55164-1.8816 1.1133-2.4434 0.56189-0.57298 1.342-0.85938 2.3418-0.85938zm-116.64 0.26953c1.2021 0 2.0829 0.42106 2.6445 1.2637 0.57297 0.84261 0.85937 2.1292 0.85937 3.8594 0 1.7301-0.2864 3.0212-0.85937 3.875-0.56164 0.84261-1.4424 1.2656-2.6445 1.2656-1.2359 0-2.1399-0.42302-2.7129-1.2656-0.57298-0.85384-0.86133-2.1449-0.86133-3.875 0-1.7301 0.28835-3.0168 0.86133-3.8594 0.57297-0.84261 1.477-1.2637 2.7129-1.2637zm19.551 0c1.2021 0 2.0826 0.42106 2.6445 1.2637 0.57298 0.84261 0.86133 2.1292 0.86133 3.8594 0 1.7301-0.28835 3.0212-0.86133 3.875-0.56189 0.84261-1.4424 1.2656-2.6445 1.2656-1.2357 0-2.1399-0.42302-2.7129-1.2656-0.57298-0.85384-0.85938-2.1449-0.85938-3.875 0-1.7301 0.2864-3.0168 0.85938-3.8594 0.57297-0.84261 1.4772-1.2637 2.7129-1.2637zm-38.361 0.050782h0.003906c0.41575 0 0.79202 0.083386 1.1289 0.25195 0.33613 0.16852 0.62252 0.45053 0.85938 0.84375 0.24592 0.38198 0.4362 0.88648 0.57226 1.5156 0.13354 0.62914 0.20117 1.4049 0.20117 2.3262 0 0.96617-0.085087 1.7868-0.25391 2.4609-0.16857 0.67409-0.40562 1.2235-0.70898 1.6504-0.29203 0.41567-0.64026 0.71916-1.0449 0.91016-0.40441 0.19099-0.84705 0.28711-1.3301 0.28711-0.50545 0-0.98837-0.085339-1.4492-0.25391-0.4606-0.17975-0.88818-0.48763-1.2812-0.92578v-7.416c0.22501-0.26953 0.44958-0.5047 0.67383-0.70703 0.22476-0.21347 0.46609-0.38668 0.72461-0.52148 0.26961-0.1348 0.556-0.23716 0.85938-0.30469 0.31446-0.078614 0.66294-0.11719 1.0449-0.11719z"
        fill="#373f51"
        style="paint-order:stroke fill markers"/>
 </g>
</svg>
