<?xml version="1.0" encoding="UTF-8" standalone="no"?>
<!-- Created with Inkscape (http://www.inkscape.org/) -->

<svg
   xmlns:dc="http://purl.org/dc/elements/1.1/"
   xmlns:cc="http://creativecommons.org/ns#"
   xmlns:rdf="http://www.w3.org/1999/02/22-rdf-syntax-ns#"
   xmlns:svg="http://www.w3.org/2000/svg"
   xmlns="http://www.w3.org/2000/svg"
   xmlns:sodipodi="http://sodipodi.sourceforge.net/DTD/sodipodi-0.dtd"
   xmlns:inkscape="http://www.inkscape.org/namespaces/inkscape"
   width="69.731453mm"
   height="16.6551mm"
   viewBox="0 0 69.731453 16.6551"
   version="1.1"
   id="svg29467"
   inkscape:version="0.92.4 (5da689c313, 2019-01-14)"
   sodipodi:docname="book_renew_charcoal_logo.svg">
  <defs
     id="defs29461" />
  <sodipodi:namedview
     id="base"
     pagecolor="#ffffff"
     bordercolor="#666666"
     borderopacity="1.0"
     inkscape:pageopacity="0.0"
     inkscape:pageshadow="2"
     inkscape:zoom="5.6"
     inkscape:cx="167.51698"
     inkscape:cy="11.696691"
     inkscape:document-units="mm"
     inkscape:current-layer="layer1"
     showgrid="false"
     fit-margin-top="0"
     fit-margin-left="0"
     fit-margin-right="0"
     fit-margin-bottom="0"
     inkscape:window-width="3840"
     inkscape:window-height="2035"
     inkscape:window-x="3827"
     inkscape:window-y="-13"
     inkscape:window-maximized="1" />
  <metadata
     id="metadata29464">
    <rdf:RDF>
      <cc:Work
         rdf:about="">
        <dc:format>image/svg+xml</dc:format>
        <dc:type
           rdf:resource="http://purl.org/dc/dcmitype/StillImage" />
        <dc:title></dc:title>
      </cc:Work>
    </rdf:RDF>
  </metadata>
  <g
     inkscape:label="Layer 1"
     inkscape:groupmode="layer"
     id="layer1"
     transform="translate(-18.42892,-32.971557)">
    <path
       style="opacity:1;fill:#373f51;fill-opacity:1;stroke:none;stroke-width:60.71810532;stroke-miterlimit:4;stroke-dasharray:none;paint-order:stroke fill markers"
       d="M 1.4648438 0 A 1.466327 1.466327 0 0 0 0 1.4648438 L 0 9.6855469 L 0 46.957031 A 1.466327 1.466327 0 0 0 1.4648438 48.421875 L 9.6855469 48.421875 L 46.957031 48.421875 A 1.466327 1.466327 0 0 0 48.421875 46.957031 L 48.421875 38.738281 L 48.421875 1.4648438 A 1.466327 1.466327 0 0 0 46.957031 0 L 9.6855469 0 L 1.4648438 0 z M 9.6855469 9.6855469 L 38.738281 9.6855469 L 38.738281 38.738281 L 9.6855469 9.6855469 z M 54.730469 14.525391 A 1.466327 1.466327 0 0 0 53.265625 15.992188 L 53.265625 24.210938 L 53.265625 51.798828 A 1.466327 1.466327 0 0 1 51.798828 53.263672 L 15.992188 53.263672 A 1.466327 1.466327 0 0 0 14.527344 54.728516 L 14.527344 61.482422 A 1.466327 1.466327 0 0 0 15.992188 62.949219 L 24.212891 62.949219 L 61.482422 62.949219 A 1.466327 1.466327 0 0 0 62.949219 61.482422 L 62.949219 53.265625 L 62.949219 15.992188 A 1.466327 1.466327 0 0 0 61.482422 14.525391 L 54.730469 14.525391 z M 142.06445 18.724609 L 142.06445 43.953125 L 147.28711 43.953125 L 147.28711 36.21875 L 148.29883 36.21875 C 148.63571 36.21875 148.88782 36.263563 149.05664 36.353516 C 149.22622 36.432155 149.39065 36.611709 149.54688 36.892578 L 152.84961 43.076172 C 153.02926 43.401992 153.26007 43.632775 153.54102 43.767578 C 153.83305 43.891043 154.17504 43.953125 154.56836 43.953125 L 159.28711 43.953125 L 154.36523 35.59375 C 153.99434 34.96461 153.55623 34.460109 153.05078 34.078125 C 153.34306 33.898446 153.61245 33.695459 153.85938 33.470703 C 154.11714 33.245998 154.35419 32.98742 154.56836 32.695312 L 159.08398 26.476562 L 154.29883 26.476562 C 153.89442 26.476562 153.55672 26.544884 153.28711 26.679688 C 153.02935 26.814516 152.80478 27.028231 152.61328 27.320312 L 149.31055 32.240234 C 149.15231 32.476077 148.98359 32.640516 148.80469 32.730469 C 148.63612 32.820422 148.3883 32.865234 148.0625 32.865234 L 147.28711 32.865234 L 147.28711 18.726562 L 142.06445 18.724609 z M 83.410156 18.726562 L 83.410156 43.953125 L 86.882812 43.953125 C 87.22045 43.953125 87.489831 43.886756 87.691406 43.751953 C 87.905328 43.617125 88.050796 43.369274 88.128906 43.009766 L 88.314453 42.132812 C 88.584059 42.436157 88.859932 42.718169 89.140625 42.976562 C 89.432908 43.234956 89.747102 43.459398 90.083984 43.650391 C 90.432457 43.830221 90.808481 43.969273 91.212891 44.070312 C 91.628387 44.171352 92.094289 44.222656 92.611328 44.222656 C 93.723517 44.222656 94.734673 43.991874 95.644531 43.53125 C 96.565728 43.070626 97.352064 42.43146 98.003906 41.611328 C 98.666583 40.791196 99.179503 39.82513 99.539062 38.712891 C 99.909708 37.600676 100.09375 36.386735 100.09375 35.072266 C 100.09375 33.667919 99.931264 32.415455 99.605469 31.314453 C 99.291012 30.213452 98.852653 29.285909 98.291016 28.533203 C 97.729126 27.769235 97.060211 27.190097 96.285156 26.796875 C 95.509849 26.403678 94.667923 26.207031 93.757812 26.207031 C 92.645624 26.207031 91.673041 26.403678 90.841797 26.796875 C 90.021639 27.178859 89.286356 27.691653 88.634766 28.332031 L 88.634766 18.726562 L 83.410156 18.726562 z M 177.67383 26.140625 C 176.73021 26.140625 175.86023 26.427024 175.0625 27 C 174.26477 27.572976 173.54455 28.353148 172.9043 29.341797 L 172.61719 27.707031 C 172.57183 27.482275 172.5153 27.291994 172.44727 27.134766 C 172.39183 26.977537 172.30315 26.853625 172.17969 26.763672 C 172.0663 26.662381 171.91913 26.589772 171.74023 26.544922 C 171.57192 26.500071 171.36008 26.478516 171.10156 26.478516 L 168 26.478516 L 168 43.953125 L 173.22656 43.953125 L 173.22656 33.236328 C 174.01296 31.775818 175.09218 31.044922 176.46289 31.044922 C 176.85621 31.044922 177.18119 31.072717 177.43945 31.128906 C 177.69747 31.173757 177.92179 31.195312 178.11328 31.195312 C 178.33905 31.195312 178.5188 31.1505 178.65234 31.060547 C 178.78589 30.959356 178.87652 30.792483 178.92188 30.556641 L 179.5957 26.712891 C 179.11268 26.330906 178.47156 26.140625 177.67383 26.140625 z M 110.74805 26.207031 C 109.4111 26.207031 108.19095 26.416359 107.08984 26.832031 C 106.00008 27.247729 105.05725 27.842006 104.25977 28.617188 C 103.47312 29.392394 102.86005 30.337005 102.42188 31.449219 C 101.99504 32.55022 101.78125 33.791957 101.78125 35.173828 C 101.78125 36.566937 101.99504 37.823788 102.42188 38.947266 C 102.86005 40.059505 103.47312 41.010456 104.25977 41.796875 C 105.05725 42.572056 106.00008 43.172674 107.08984 43.599609 C 108.19095 44.015282 109.4111 44.222656 110.74805 44.222656 C 112.07365 44.222656 113.28133 44.015282 114.37109 43.599609 C 115.46086 43.172674 116.39266 42.572056 117.16797 41.796875 C 117.95436 41.010456 118.56145 40.059505 118.98828 38.947266 C 119.42645 37.823788 119.64453 36.566937 119.64453 35.173828 C 119.64453 33.791957 119.42645 32.55022 118.98828 31.449219 C 118.56145 30.337005 117.95436 29.392394 117.16797 28.617188 C 116.39266 27.842006 115.46086 27.247729 114.37109 26.832031 C 113.28133 26.416359 112.07365 26.207031 110.74805 26.207031 z M 130.29883 26.207031 C 128.96214 26.207031 127.74173 26.416359 126.64062 26.832031 C 125.55086 27.247729 124.60828 27.842006 123.81055 28.617188 C 123.02415 29.392394 122.41083 30.337005 121.97266 31.449219 C 121.54582 32.55022 121.33398 33.791957 121.33398 35.173828 C 121.33398 36.566937 121.54582 37.823788 121.97266 38.947266 C 122.41083 40.059505 123.02415 41.010456 123.81055 41.796875 C 124.60828 42.572056 125.55086 43.172674 126.64062 43.599609 C 127.74173 44.015282 128.96214 44.222656 130.29883 44.222656 C 131.62469 44.222656 132.83211 44.015282 133.92188 43.599609 C 135.01164 43.172674 135.94369 42.572056 136.71875 41.796875 C 137.5054 41.010456 138.11223 40.059505 138.53906 38.947266 C 138.97724 37.823788 139.19727 36.566937 139.19727 35.173828 C 139.19727 33.791957 138.97724 32.55022 138.53906 31.449219 C 138.11223 30.337005 137.5054 29.392394 136.71875 28.617188 C 135.94369 27.842006 135.01164 27.247729 133.92188 26.832031 C 132.83211 26.416359 131.62469 26.207031 130.29883 26.207031 z M 189.37305 26.207031 C 188.0369 26.207261 186.83439 26.438043 185.76758 26.898438 C 184.71158 27.359061 183.80732 27.983112 183.05469 28.769531 C 182.31314 29.55595 181.74035 30.470787 181.33594 31.515625 C 180.94261 32.560438 180.74609 33.667509 180.74609 34.835938 C 180.74609 36.386325 180.9769 37.745659 181.4375 38.914062 C 181.90944 40.082466 182.54406 41.059259 183.3418 41.845703 C 184.15062 42.632122 185.08891 43.228353 186.15625 43.632812 C 187.23468 44.026009 188.38481 44.222656 189.60938 44.222656 C 190.20478 44.222656 190.82888 44.177843 191.48047 44.087891 C 192.1434 44.009201 192.80153 43.863808 193.45312 43.650391 C 194.11605 43.42571 194.75522 43.122219 195.37305 42.740234 C 196.00221 42.347012 196.58774 41.840559 197.12695 41.222656 L 195.60938 39.351562 C 195.39596 39.048218 195.08151 38.896484 194.66602 38.896484 C 194.35131 38.896484 194.04789 38.971046 193.75586 39.117188 C 193.47491 39.263354 193.16072 39.425815 192.8125 39.605469 C 192.47537 39.785122 192.08661 39.947608 191.64844 40.09375 C 191.21026 40.239892 190.68852 40.3125 190.08203 40.3125 C 188.94717 40.3125 188.01965 39.987553 187.30078 39.335938 C 186.58192 38.673084 186.13952 37.610901 185.9707 36.150391 L 196.04688 36.150391 C 196.28272 36.150391 196.47495 36.122595 196.62109 36.066406 C 196.77731 36.010217 196.89953 35.909814 196.99023 35.763672 C 197.08094 35.617631 197.14303 35.421009 197.17578 35.173828 C 197.20854 34.926672 197.22461 34.606113 197.22461 34.212891 C 197.22461 32.95461 197.02809 31.830446 196.63477 30.841797 C 196.25278 29.84191 195.71402 28.999782 195.01758 28.314453 C 194.33222 27.629149 193.50731 27.107556 192.54102 26.748047 C 191.58686 26.388745 190.53151 26.207238 189.375 26.207031 L 189.37305 26.207031 z M 210.16406 26.207031 C 209.60242 26.207031 209.08068 26.264575 208.59766 26.376953 C 208.12572 26.478068 207.68137 26.623461 207.26562 26.814453 C 206.86122 26.994207 206.4787 27.21865 206.11914 27.488281 C 205.75958 27.757913 205.4111 28.050652 205.07422 28.365234 L 204.77148 27.353516 C 204.68128 27.061509 204.52503 26.843407 204.30078 26.697266 C 204.08736 26.551124 203.81798 26.478516 203.49219 26.478516 L 200.25586 26.478516 L 200.25586 43.953125 L 205.47852 43.953125 L 205.47852 31.5 C 205.93911 31.084328 206.42229 30.75304 206.92773 30.505859 C 207.43344 30.258678 207.9739 30.134766 208.54688 30.134766 C 209.31084 30.134766 209.88818 30.376276 210.28125 30.859375 C 210.67457 31.331236 210.87109 31.993836 210.87109 32.847656 L 210.87109 43.953125 L 216.0957 43.953125 L 216.0957 32.847656 C 216.0957 31.892721 215.96725 31.010092 215.70898 30.201172 C 215.45046 29.38104 215.06795 28.679892 214.5625 28.095703 C 214.0568 27.500251 213.43295 27.038686 212.69141 26.712891 C 211.9612 26.375858 211.11902 26.207031 210.16406 26.207031 z M 227.28906 26.207031 C 225.95292 26.207261 224.7521 26.438044 223.68555 26.898438 C 222.62929 27.359061 221.72529 27.983112 220.97266 28.769531 C 220.23111 29.55595 219.65636 30.470787 219.25195 31.515625 C 218.85863 32.560438 218.66211 33.667509 218.66211 34.835938 C 218.66211 36.386325 218.89267 37.745659 219.35352 38.914062 C 219.8252 40.082466 220.46008 41.059259 221.25781 41.845703 C 222.06663 42.632122 223.00493 43.228353 224.07227 43.632812 C 225.15094 44.026009 226.30278 44.222656 227.52734 44.222656 C 228.12275 44.222656 228.74685 44.177843 229.39844 44.087891 C 230.06111 44.009201 230.7173 43.863808 231.36914 43.650391 C 232.03182 43.42571 232.67294 43.122219 233.29102 42.740234 C 233.91993 42.347012 234.5035 41.840559 235.04297 41.222656 L 233.52734 39.351562 C 233.31393 39.048218 232.99778 38.896484 232.58203 38.896484 C 232.26732 38.896484 231.96391 38.971046 231.67188 39.117188 C 231.39093 39.263354 231.07674 39.425815 230.72852 39.605469 C 230.39163 39.785122 230.00458 39.947608 229.56641 40.09375 C 229.12823 40.239892 228.60674 40.3125 228 40.3125 C 226.86539 40.3125 225.93787 39.987553 225.21875 39.335938 C 224.50014 38.673084 224.05554 37.610901 223.88672 36.150391 L 233.96484 36.150391 C 234.20069 36.150391 234.39097 36.122595 234.53711 36.066406 C 234.69333 36.010217 234.81749 35.909814 234.9082 35.763672 C 234.99891 35.617631 235.06099 35.421009 235.09375 35.173828 C 235.12651 34.926672 235.14258 34.606113 235.14258 34.212891 C 235.14258 32.95461 234.94581 31.830446 234.55273 30.841797 C 234.17075 29.84191 233.63224 28.999782 232.93555 28.314453 C 232.25019 27.629149 231.42308 27.107556 230.45703 26.748047 C 229.50262 26.388744 228.44753 26.207237 227.29102 26.207031 L 227.28906 26.207031 z M 248.78906 26.460938 C 248.45218 26.460938 248.15305 26.550815 247.89453 26.730469 C 247.63677 26.898985 247.47428 27.1127 247.40625 27.371094 L 245.2168 35.224609 C 245.04747 35.831274 244.87226 36.414824 244.69336 36.976562 C 244.52378 37.527063 244.3613 38.078405 244.20508 38.628906 C 244.11689 38.078405 244.01573 37.520723 243.90234 36.958984 C 243.78896 36.397246 243.66479 35.820036 243.53125 35.224609 L 241.7793 27.386719 C 241.72311 27.117138 241.56062 26.899036 241.29102 26.730469 C 241.02141 26.561902 240.70098 26.478516 240.33008 26.478516 L 236.15039 26.478516 L 241.57812 43.953125 L 245.62305 43.953125 C 246.19577 43.953125 246.56556 43.660361 246.73438 43.076172 L 249.26172 34.398438 C 249.38518 34.005215 249.49328 33.616359 249.58398 33.234375 C 249.68477 32.841178 249.77345 32.44791 249.85156 32.054688 C 249.92967 32.436672 250.02031 32.819188 250.12109 33.201172 C 250.22188 33.583131 250.32802 33.972012 250.44141 34.365234 L 252.93555 43.076172 C 253.02626 43.390755 253.15042 43.615197 253.30664 43.75 C 253.46437 43.884803 253.65465 43.953125 253.87891 43.953125 L 258.125 43.953125 L 263.55273 26.478516 L 259.57422 26.478516 C 259.23734 26.478516 258.93367 26.561902 258.66406 26.730469 C 258.40479 26.898985 258.24879 27.117087 258.19336 27.386719 L 256.33984 35.224609 C 256.19244 35.842512 256.05151 36.432402 255.91797 36.994141 C 255.7945 37.544641 255.68836 38.100371 255.59766 38.662109 C 255.45177 38.089133 255.29382 37.520723 255.125 36.958984 C 254.96676 36.397246 254.80856 35.820036 254.65234 35.224609 L 252.5625 27.371094 C 252.49497 27.11275 252.3282 26.899036 252.05859 26.730469 C 251.80033 26.550815 251.48418 26.460938 251.11328 26.460938 L 248.78906 26.460938 z M 189.47266 29.814453 L 189.47461 29.814453 C 190.03534 29.81469 190.51171 29.910808 190.9043 30.101562 C 191.29661 30.292555 191.61081 30.544792 191.84766 30.859375 C 192.09534 31.162695 192.27031 31.511075 192.37109 31.904297 C 192.48448 32.297519 192.54102 32.701515 192.54102 33.117188 L 186.01953 33.117188 C 186.19918 32.049899 186.56897 31.235567 187.13086 30.673828 C 187.69211 30.101244 188.47358 29.814845 189.47266 29.814453 z M 227.39062 29.814453 C 227.95226 29.814453 228.42894 29.91057 228.82227 30.101562 C 229.21458 30.292555 229.52877 30.544792 229.76562 30.859375 C 230.01306 31.162695 230.18828 31.511075 230.28906 31.904297 C 230.40245 32.297519 230.45898 32.701515 230.45898 33.117188 L 223.93555 33.117188 C 224.11545 32.049899 224.48719 31.235567 225.04883 30.673828 C 225.61072 30.100852 226.39081 29.814453 227.39062 29.814453 z M 110.74805 30.083984 C 111.95019 30.083984 112.83094 30.505048 113.39258 31.347656 C 113.96555 32.190264 114.25195 33.47689 114.25195 35.207031 C 114.25195 36.937173 113.96555 38.228186 113.39258 39.082031 C 112.83094 39.924639 111.95019 40.347656 110.74805 40.347656 C 109.51214 40.347656 108.60813 39.924639 108.03516 39.082031 C 107.46218 38.228186 107.17383 36.937173 107.17383 35.207031 C 107.17383 33.47689 107.46218 32.190264 108.03516 31.347656 C 108.60813 30.505048 109.51214 30.083984 110.74805 30.083984 z M 130.29883 30.083984 C 131.50097 30.083984 132.38147 30.505048 132.94336 31.347656 C 133.51634 32.190264 133.80469 33.47689 133.80469 35.207031 C 133.80469 36.937173 133.51634 38.228186 132.94336 39.082031 C 132.38147 39.924639 131.50097 40.347656 130.29883 40.347656 C 129.06317 40.347656 128.15891 39.924639 127.58594 39.082031 C 127.01296 38.228186 126.72656 36.937173 126.72656 35.207031 C 126.72656 33.47689 127.01296 32.190264 127.58594 31.347656 C 128.15891 30.505048 129.06317 30.083984 130.29883 30.083984 z M 91.9375 30.134766 L 91.941406 30.134766 C 92.357154 30.134766 92.733431 30.218152 93.070312 30.386719 C 93.406438 30.555235 93.692837 30.837247 93.929688 31.230469 C 94.175609 31.612453 94.36589 32.116954 94.501953 32.746094 C 94.635496 33.375234 94.703125 34.151018 94.703125 35.072266 C 94.703125 36.038439 94.618038 36.859112 94.449219 37.533203 C 94.280652 38.207294 94.043604 38.756684 93.740234 39.183594 C 93.448203 39.599266 93.099974 39.902758 92.695312 40.09375 C 92.290903 40.284742 91.848258 40.380859 91.365234 40.380859 C 90.859786 40.380859 90.376866 40.29552 89.916016 40.126953 C 89.455417 39.947199 89.027836 39.63932 88.634766 39.201172 L 88.634766 31.785156 C 88.859773 31.515626 89.084342 31.280456 89.308594 31.078125 C 89.53335 30.864657 89.774683 30.691444 90.033203 30.556641 C 90.302809 30.421837 90.589208 30.319481 90.892578 30.251953 C 91.207035 30.173339 91.555516 30.134766 91.9375 30.134766 z "
       transform="matrix(0.26458333,0,0,0.26458333,18.42892,32.971557)"
       id="path15443" />
  </g>
</svg>
