<?xml version="1.0" encoding="UTF-8"?>
<svg width="163.54"
     height="163.54"
     version="1.1"
     viewBox="0 0 163.54 163.54"
     xml:space="preserve"
     xmlns="http://www.w3.org/2000/svg">
    <path d="m19.74-0.0019531c-1.681 0-3.0371 1.3574-3.0371 3.0273v94.014c0 1.681 1.3562 3.0371 3.0371 3.0371h94.016c1.6672 0 3.0254-1.3562 3.0254-3.0371v-94.014c0-1.6699-1.3582-3.0273-3.0254-3.0273h-94.016zm16.986 20.012h60.043v60.043l-60.043-60.043zm93.104 9.998c-1.6672 0.01102-3.0274 1.366-3.0274 3.0332v74.008c0 1.6672-1.355 3.0254-3.0332 3.0254h-73.996c-1.6782 0-3.0332 1.355-3.0332 3.0332v13.953c0 1.6782 1.355 3.0332 3.0332 3.0332h94.016c1.6699 0 3.0261-1.355 3.0371-3.0332v-94.02c0-1.6672-1.3672-3.0332-3.0371-3.0332h-13.959zm-129.84 110.37v22.904h3.1582c0.30262 0 0.5475-0.05613 0.73633-0.16992 0.19004-0.12346 0.32218-0.34997 0.39844-0.68164l0.16992-0.79492c0.23725 0.26509 0.48287 0.52177 0.73828 0.75781 0.26388 0.24088 0.55321 0.44448 0.86914 0.60547 0.3123 0.16583 0.65229 0.28933 1.0215 0.37891 0.37888 0.0992 0.79913 0.15039 1.2676 0.15039 1.0071 0 1.9301-0.2086 2.7617-0.625 0.8328-0.41639 1.5412-0.99143 2.1367-1.7383 0.59071-0.75654 1.0504-1.6365 1.3809-2.6484 0.34135-1.0071 0.50977-2.1055 0.50977-3.293 0-1.271-0.1455-2.4049-0.43359-3.4023-0.29293-1.0071-0.69528-1.8537-1.2109-2.5352-0.50597-0.68996-1.1119-1.2156-1.8164-1.5703-0.70933-0.36435-1.4688-0.54883-2.2871-0.54883-1.0119 0-1.8919 0.18142-2.6484 0.53125-0.74686 0.35466-1.4132 0.82105-2.0039 1.3984v-8.7188h-4.748zm53.246 0.00195v22.904h4.748v-7.0156h0.90625c0.3123 0 0.54986 0.03633 0.70117 0.11133 0.15131 0.07626 0.29197 0.24357 0.43359 0.49414l3.0078 5.6152c0.16099 0.29414 0.36764 0.50153 0.62305 0.625 0.26509 0.11377 0.57307 0.16993 0.92774 0.16993h4.293l-4.4629-7.584c-0.34014-0.57739-0.73748-1.0395-1.1914-1.3809 0.26509-0.15978 0.50997-0.34547 0.73633-0.54883 0.22757-0.19852 0.43617-0.43412 0.625-0.69921l4.1055-5.6562h-4.3516c-0.36919 0-0.67021 0.06719-0.90625 0.18945-0.24088 0.11379-0.44448 0.31311-0.60547 0.58789l-3.0078 4.4629c-0.14162 0.21789-0.29409 0.36843-0.45508 0.45313-0.15131 0.07628-0.37707 0.11328-0.67969 0.11328h-0.69922v-12.842h-4.748zm32.322 6.7305c-0.86064 0-1.6462 0.26168-2.3652 0.77734-0.71902 0.5205-1.3711 1.2269-1.9473 2.1348l-0.26562-1.4922c-0.037524-0.19852-0.088661-0.3701-0.15039-0.51172-0.052049-0.15131-0.13352-0.26484-0.24609-0.33984-0.1041-0.08473-0.2367-0.15196-0.39648-0.18946-0.15131-0.0472-0.35064-0.07617-0.58789-0.07617h-2.8184v15.869h4.748v-9.7402c0.71902-1.3242 1.6921-1.9863 2.9316-1.9863 0.36435 0 0.66232 0.02897 0.88867 0.07617 0.23725 0.0521 0.44085 0.07422 0.60547 0.07422 0.21304 0 0.37962-0.04126 0.49219-0.13086 0.12347-0.08594 0.20735-0.23645 0.24609-0.45312l0.62305-3.5c-0.44424-0.34014-1.0291-0.51172-1.7578-0.51172zm29.508 0.05664c-0.5205 0-0.99384 0.05304-1.4199 0.15234-0.42971 0.08958-0.83207 0.22219-1.2109 0.39649-0.36919 0.16584-0.71345 0.37444-1.0391 0.625-0.33167 0.24089-0.65255 0.50488-0.96485 0.79297l-0.26562-0.92579c-0.08958-0.26388-0.23507-0.45762-0.43359-0.58593-0.18884-0.1368-0.43567-0.20899-0.73829-0.20899h-2.9316v15.869h4.7461v-11.311c0.41639-0.37887 0.85272-0.67079 1.3066-0.88868 0.4624-0.22635 0.95532-0.34179 1.4746-0.34179 0.69117 0 1.2156 0.21966 1.5703 0.64453 0.36435 0.43092 0.54883 1.0349 0.54883 1.8144v10.082h4.7461v-10.082c0-0.86911-0.12212-1.6668-0.35937-2.4004-0.24088-0.74201-0.58515-1.3812-1.0391-1.9102-0.45392-0.53865-1.0166-0.96496-1.6836-1.2676-0.6706-0.30262-1.4363-0.45508-2.3066-0.45508zm-90.25 0.00391c-1.2105 0-2.318 0.18948-3.3105 0.56835-0.99742 0.37767-1.8532 0.92247-2.5723 1.627-0.71902 0.70933-1.2798 1.5652-1.6816 2.5723-0.3934 0.99742-0.58789 2.1271-0.58789 3.3848 0 1.2625 0.19449 2.4022 0.58789 3.4238 0.40187 1.012 0.96263 1.8678 1.6816 2.5723 0.71902 0.70933 1.5748 1.2572 2.5723 1.6445 0.99258 0.37766 2.1001 0.56836 3.3105 0.56836 1.1959 0 2.2893-0.1907 3.2734-0.56836 0.99258-0.38735 1.8434-0.9352 2.5527-1.6445 0.71902-0.70449 1.2719-1.5603 1.6641-2.5723 0.38735-1.0216 0.58594-2.1613 0.58594-3.4238 0-1.2577-0.19859-2.3874-0.58594-3.3848-0.39219-1.0071-0.94505-1.8629-1.6641-2.5723-0.70933-0.70449-1.5602-1.2493-2.5527-1.627-0.98411-0.37887-2.0775-0.56835-3.2734-0.56835zm17.746 0c-1.2105 0-2.3168 0.18948-3.3105 0.56835-0.99742 0.37767-1.8532 0.92247-2.5723 1.627-0.7178 0.70933-1.2817 1.5652-1.6836 2.5723-0.3934 0.99742-0.58594 2.1271-0.58594 3.3848 0 1.2625 0.19254 2.4022 0.58594 3.4238 0.40187 1.012 0.96579 1.8678 1.6836 2.5723 0.71902 0.70933 1.5748 1.2572 2.5723 1.6445 0.99379 0.37766 2.1001 0.56836 3.3105 0.56836 1.1959 0 2.2874-0.1907 3.2715-0.56836 0.99258-0.38735 1.8434-0.9352 2.5527-1.6445 0.71902-0.70449 1.2719-1.5603 1.6641-2.5723 0.38735-1.0216 0.58789-2.1613 0.58789-3.4238 0-1.2577-0.20054-2.3874-0.58789-3.3848-0.39219-1.0071-0.94505-1.8629-1.6641-2.5723-0.70933-0.70449-1.5602-1.2493-2.5527-1.627-0.98411-0.37887-2.0755-0.56835-3.2715-0.56835zm53.623 0c-1.2105 0-2.3019 0.2086-3.2715 0.625-0.9599 0.41518-1.7775 0.98215-2.459 1.7012-0.67181 0.71901-1.1864 1.5507-1.5508 2.4961-0.36919 0.94658-0.54688 1.9487-0.54688 3.0078 0 1.4138 0.20786 2.6479 0.62305 3.707 0.42608 1.0592 1.0067 1.9482 1.7402 2.666 0.72749 0.71901 1.5795 1.2626 2.5527 1.627 0.96958 0.34983 2.0149 0.53125 3.1406 0.53125 0.52897 0 1.0868-0.03818 1.6836-0.11328 0.60523-0.07626 1.1994-0.21461 1.7949-0.41797 0.60523-0.19851 1.1921-0.47541 1.7598-0.83007 0.56771-0.34982 1.0886-0.80526 1.5703-1.3633l-1.3613-1.7031c-0.20336-0.27356-0.49222-0.41406-0.87109-0.41406-0.27841 0-0.54741 0.06904-0.8125 0.20703-0.26389 0.1271-0.55805 0.27455-0.86914 0.43554-0.30262 0.16583-0.65867 0.31635-1.0605 0.45313-0.3934 0.12713-0.86479 0.18945-1.418 0.18945-1.0216 0-1.8632-0.29312-2.5156-0.88867-0.65728-0.5907-1.0596-1.5558-1.2109-2.8945h9.1543c0.21304 0 0.38145-0.02212 0.50976-0.07422 0.13678-0.04721 0.24597-0.13852 0.32227-0.26562 0.08477-0.13679 0.14212-0.31141 0.16992-0.5293 0.0375-0.22635 0.05664-0.51947 0.05664-0.88867 0-1.1342-0.17948-2.1475-0.5293-3.0469-0.35467-0.90785-0.84638-1.6674-1.4746-2.2871-0.61976-0.62944-1.3621-1.1058-2.2324-1.4375-0.87032-0.32561-1.8354-0.49218-2.8945-0.49218zm34.414 0c-1.2105 0-2.3019 0.2086-3.2715 0.625-0.95989 0.41518-1.7787 0.98215-2.459 1.7012-0.6718 0.71901-1.1884 1.5507-1.5527 2.4961-0.36798 0.94658-0.54688 1.9487-0.54688 3.0078 0 1.4138 0.20665 2.6479 0.62305 3.707 0.42487 1.0592 1.0079 1.9482 1.7402 2.666 0.7287 0.71901 1.5803 1.2626 2.5547 1.627 0.96837 0.34983 2.0142 0.53125 3.1387 0.53125 0.5302 0 1.088-0.03818 1.6836-0.11328 0.60523-0.07626 1.2013-0.21461 1.7969-0.41797 0.60524-0.19851 1.1921-0.47541 1.7598-0.83007 0.56649-0.34982 1.0866-0.80526 1.5684-1.3633l-1.3613-1.7031c-0.20336-0.27356-0.49147-0.41406-0.86914-0.41406-0.27961 0-0.54936 0.06904-0.81445 0.20703-0.26509 0.1271-0.55684 0.27455-0.86914 0.43554-0.30262 0.16583-0.65867 0.31635-1.0606 0.45313-0.39219 0.12713-0.86479 0.18945-1.418 0.18945-1.0216 0-1.8632-0.29312-2.5156-0.88867-0.65728-0.5907-1.0596-1.5558-1.2109-2.8945h9.1562c0.21183 0 0.38072-0.02212 0.50781-0.07422 0.138-0.04721 0.24717-0.13852 0.32227-0.26562 0.08477-0.13679 0.14277-0.31141 0.17187-0.5293 0.0375-0.22635 0.05664-0.51947 0.05664-0.88867 0-1.1342-0.18142-2.1475-0.53125-3.0469-0.35466-0.90785-0.84517-1.6674-1.4746-2.2871-0.61855-0.62944-1.3614-1.1058-2.2305-1.4375-0.87032-0.32561-1.8354-0.49218-2.8945-0.49218zm19.531 0.2246c-0.31714 0-0.59673 0.0851-0.83398 0.2461-0.22636 0.1513-0.3719 0.3499-0.4336 0.58594l-1.9863 7.1309c-0.1513 0.55802-0.31288 1.0868-0.47266 1.5879-0.1513 0.50597-0.29756 1.0015-0.43555 1.4941-0.08958-0.49266-0.1839-0.98817-0.2832-1.4941-0.1041-0.51566-0.21759-1.0444-0.33984-1.5879l-1.5898-7.1113c-0.05205-0.25057-0.20256-0.45417-0.45312-0.60547-0.24089-0.15127-0.52473-0.22852-0.85157-0.22852h-3.8027l4.918 15.869h3.6894c0.51566 0 0.85065-0.26474 1.002-0.79492l2.2891-7.8867c0.11257-0.34983 0.21193-0.70392 0.30273-1.0586 0.08474-0.34982 0.1698-0.70394 0.2461-1.0586 0.06052 0.34013 0.13501 0.68923 0.22461 1.0391 0.09926 0.34014 0.19863 0.69424 0.30273 1.0586l2.2695 7.9062c0.07626 0.29414 0.18065 0.50154 0.32227 0.625 0.15131 0.11378 0.32594 0.16992 0.52929 0.16992h3.8594l4.916-15.869h-3.5918c-0.31714 0-0.59599 0.07721-0.83203 0.22852-0.24088 0.1513-0.38835 0.3549-0.43555 0.60547l-1.6836 7.1113c-0.1271 0.55802-0.2547 1.0918-0.37696 1.6074-0.11378 0.50598-0.20885 1.0106-0.28515 1.5117-0.14162-0.51566-0.28229-1.0253-0.4336-1.5312-0.14163-0.51566-0.28619-1.0444-0.4375-1.5879l-1.8906-7.1309c-0.06658-0.23604-0.21709-0.43464-0.45313-0.58594-0.24088-0.16103-0.53095-0.2461-0.87109-0.2461h-2.0977zm-53.85 3.0469c0.51445 0 0.95002 0.0901 1.3047 0.26562 0.34982 0.17915 0.63368 0.40612 0.85156 0.67969 0.22636 0.27962 0.38309 0.60171 0.47266 0.96485 0.099258 0.35466 0.15039 0.72072 0.15039 1.0996h-5.9199c0.16099-0.96958 0.49793-1.7119 1.0039-2.2324 0.51566-0.51565 1.2289-0.77734 2.1367-0.77734zm34.412 0c0.51566 0 0.95003 0.0901 1.3047 0.26562 0.34983 0.17915 0.63488 0.40612 0.85156 0.67969 0.22756 0.27962 0.38306 0.60171 0.47266 0.96485 0.09921 0.35466 0.15234 0.72072 0.15234 1.0996h-5.9199c0.16099-0.96958 0.49598-1.7119 1.002-2.2324 0.51566-0.51565 1.2289-0.77734 2.1367-0.77734zm-105.88 0.24609c1.0822 0 1.8818 0.38929 2.4023 1.1543 0.51566 0.77107 0.77539 1.9397 0.77539 3.5 0 1.5797-0.25973 2.7526-0.77539 3.5176-0.5205 0.77106-1.3202 1.1523-2.4023 1.1523-1.1257 0-1.9476-0.38128-2.4766-1.1523-0.5205-0.76502-0.77734-1.9379-0.77734-3.5176 0-1.5603 0.25684-2.7289 0.77734-3.5 0.52897-0.76501 1.3508-1.1543 2.4766-1.1543zm17.746 0c1.0822 0 1.8818 0.38929 2.4023 1.1543 0.51566 0.77107 0.77539 1.9397 0.77539 3.5-1e-6 1.5797-0.25973 2.7526-0.77539 3.5176-0.5205 0.77106-1.3202 1.1523-2.4023 1.1523-1.1257 0-1.9495-0.38128-2.4785-1.1523-0.5205-0.76502-0.77539-1.9379-0.77539-3.5176 0-1.5603 0.25489-2.7289 0.77539-3.5 0.52897-0.76501 1.3528-1.1543 2.4785-1.1543zm-34.838 0.05274c0.37888 0 0.71887 0.0772 1.0215 0.22851 0.3123 0.15131 0.57825 0.40603 0.79492 0.75586 0.22757 0.35466 0.39794 0.81436 0.51172 1.3809 0.12347 0.5677 0.1875 1.2759 0.1875 2.1172 0 0.87032-0.075255 1.6175-0.22656 2.2324-0.15131 0.60523-0.36901 1.1068-0.64258 1.4941-0.26509 0.37888-0.58096 0.65651-0.94531 0.83203-0.36798 0.16582-0.77033 0.2461-1.2109 0.2461-0.45392 0-0.89935-0.07526-1.3242-0.22657-0.4164-0.16099-0.80252-0.43984-1.1523-0.83203v-6.7324c0.19852-0.25056 0.40211-0.46417 0.60547-0.64453 0.19852-0.18883 0.41927-0.34556 0.66016-0.47266 0.23725-0.12347 0.49698-0.2166 0.77539-0.2832 0.28809-0.0605 0.60517-0.0957 0.94531-0.0957z"
            fill="#fff"
            stroke-width="2.7557"
    />
</svg>
