<?xml version="1.0" encoding="UTF-8" standalone="no"?>
<!-- Created with Inkscape (http://www.inkscape.org/) -->

<svg
   xmlns:dc="http://purl.org/dc/elements/1.1/"
   xmlns:cc="http://creativecommons.org/ns#"
   xmlns:rdf="http://www.w3.org/1999/02/22-rdf-syntax-ns#"
   xmlns:svg="http://www.w3.org/2000/svg"
   xmlns="http://www.w3.org/2000/svg"
   xmlns:sodipodi="http://sodipodi.sourceforge.net/DTD/sodipodi-0.dtd"
   xmlns:inkscape="http://www.inkscape.org/namespaces/inkscape"
   version="1.1"
   id="svg2"
   xml:space="preserve"
   width="163.539"
   height="163.53915"
   viewBox="0 0 163.53901 163.53915"
   sodipodi:docname="book_renew_white_vertical_logo.svg"
   inkscape:version="0.92.2 (5c3e80d, 2017-08-06)"><metadata
     id="metadata8"><rdf:RDF><cc:Work
         rdf:about=""><dc:format>image/svg+xml</dc:format><dc:type
           rdf:resource="http://purl.org/dc/dcmitype/StillImage" /><dc:title></dc:title></cc:Work></rdf:RDF></metadata><defs
     id="defs6"><clipPath
       clipPathUnits="userSpaceOnUse"
       id="clipPath384"><path
         d="m 679,125 h 16 v 7 h -16 z"
         id="path382"
         inkscape:connector-curvature="0" /></clipPath><mask
       maskUnits="userSpaceOnUse"
       x="0"
       y="0"
       width="1"
       height="1"
       id="mask386"><g
         id="g392"><g
           clip-path="url(#clipPath384)"
           id="g390"><path
             d="m 679,125 h 16 v 7 h -16 z"
             style="fill:#000000;fill-opacity:0.5;fill-rule:nonzero;stroke:none"
             id="path388"
             inkscape:connector-curvature="0" /></g></g></mask><clipPath
       clipPathUnits="userSpaceOnUse"
       id="clipPath400"><path
         d="m 679,125 h 16 v 7 h -16 z"
         id="path398"
         inkscape:connector-curvature="0" /></clipPath><clipPath
       clipPathUnits="userSpaceOnUse"
       id="clipPath404"><path
         d="m 679,125 h 16 v 7 h -16 z"
         id="path402"
         inkscape:connector-curvature="0" /></clipPath><clipPath
       clipPathUnits="userSpaceOnUse"
       id="clipPath426"><path
         d="m 679,148 h 16 v 7 h -16 z"
         id="path424"
         inkscape:connector-curvature="0" /></clipPath><mask
       maskUnits="userSpaceOnUse"
       x="0"
       y="0"
       width="1"
       height="1"
       id="mask428"><g
         id="g434"><g
           clip-path="url(#clipPath426)"
           id="g432"><path
             d="m 679,148 h 16 v 7 h -16 z"
             style="fill:#000000;fill-opacity:0.5;fill-rule:nonzero;stroke:none"
             id="path430"
             inkscape:connector-curvature="0" /></g></g></mask><clipPath
       clipPathUnits="userSpaceOnUse"
       id="clipPath442"><path
         d="m 679,148 h 16 v 7 h -16 z"
         id="path440"
         inkscape:connector-curvature="0" /></clipPath><clipPath
       clipPathUnits="userSpaceOnUse"
       id="clipPath446"><path
         d="m 679,148 h 16 v 7 h -16 z"
         id="path444"
         inkscape:connector-curvature="0" /></clipPath><clipPath
       clipPathUnits="userSpaceOnUse"
       id="clipPath576"><path
         d="m 679,192 h 16 v 6 h -16 z"
         id="path574"
         inkscape:connector-curvature="0" /></clipPath><mask
       maskUnits="userSpaceOnUse"
       x="0"
       y="0"
       width="1"
       height="1"
       id="mask578"><g
         id="g584"><g
           clip-path="url(#clipPath576)"
           id="g582"><path
             d="m 679,192 h 16 v 6 h -16 z"
             style="fill:#000000;fill-opacity:0.5;fill-rule:nonzero;stroke:none"
             id="path580"
             inkscape:connector-curvature="0" /></g></g></mask><clipPath
       clipPathUnits="userSpaceOnUse"
       id="clipPath592"><path
         d="m 679,192 h 16 v 6 h -16 z"
         id="path590"
         inkscape:connector-curvature="0" /></clipPath><clipPath
       clipPathUnits="userSpaceOnUse"
       id="clipPath596"><path
         d="m 679,192 h 16 v 6 h -16 z"
         id="path594"
         inkscape:connector-curvature="0" /></clipPath><clipPath
       clipPathUnits="userSpaceOnUse"
       id="clipPath618"><path
         d="m 679,215 h 16 v 7 h -16 z"
         id="path616"
         inkscape:connector-curvature="0" /></clipPath><mask
       maskUnits="userSpaceOnUse"
       x="0"
       y="0"
       width="1"
       height="1"
       id="mask620"><g
         id="g626"><g
           clip-path="url(#clipPath618)"
           id="g624"><path
             d="m 679,215 h 16 v 7 h -16 z"
             style="fill:#000000;fill-opacity:0.5;fill-rule:nonzero;stroke:none"
             id="path622"
             inkscape:connector-curvature="0" /></g></g></mask><clipPath
       clipPathUnits="userSpaceOnUse"
       id="clipPath634"><path
         d="m 679,215 h 16 v 7 h -16 z"
         id="path632"
         inkscape:connector-curvature="0" /></clipPath><clipPath
       clipPathUnits="userSpaceOnUse"
       id="clipPath638"><path
         d="m 679,215 h 16 v 7 h -16 z"
         id="path636"
         inkscape:connector-curvature="0" /></clipPath><clipPath
       clipPathUnits="userSpaceOnUse"
       id="clipPath868"><path
         d="m 664,370 h 62 v 62 h -62 z"
         id="path866"
         inkscape:connector-curvature="0" /></clipPath><clipPath
       clipPathUnits="userSpaceOnUse"
       id="clipPath874"><path
         d="m 725.207,401.082 c 0,16.68 -13.519,30.195 -30.195,30.195 -16.676,0 -30.196,-13.515 -30.196,-30.195 0,-16.676 13.52,-30.195 30.196,-30.195 16.676,0 30.195,13.519 30.195,30.195 z"
         id="path872"
         inkscape:connector-curvature="0" /></clipPath><clipPath
       clipPathUnits="userSpaceOnUse"
       id="clipPath884"><path
         d="m 664,370 h 62 v 62 h -62 z"
         id="path882"
         inkscape:connector-curvature="0" /></clipPath><clipPath
       clipPathUnits="userSpaceOnUse"
       id="clipPath894"><path
         d="m 665.91,372.84 h 56.395 v 60.527 H 665.91 Z"
         id="path892"
         inkscape:connector-curvature="0" /></clipPath><clipPath
       clipPathUnits="userSpaceOnUse"
       id="clipPath908"><path
         d="M 637,324 H 752 V 462 H 637 Z"
         id="path906"
         inkscape:connector-curvature="0" /></clipPath><mask
       maskUnits="userSpaceOnUse"
       x="0"
       y="0"
       width="1"
       height="1"
       id="mask910"><g
         id="g916"><g
           clip-path="url(#clipPath908)"
           id="g914"><path
             d="M 637,324 H 752 V 462 H 637 Z"
             style="fill:#000000;fill-opacity:0.15;fill-rule:nonzero;stroke:none"
             id="path912"
             inkscape:connector-curvature="0" /></g></g></mask><clipPath
       clipPathUnits="userSpaceOnUse"
       id="clipPath924"><path
         d="M 637,324 H 752 V 462 H 637 Z"
         id="path922"
         inkscape:connector-curvature="0" /></clipPath><clipPath
       clipPathUnits="userSpaceOnUse"
       id="clipPath928"><path
         d="M 637,324 H 752 V 462 H 637 Z"
         id="path926"
         inkscape:connector-curvature="0" /></clipPath><clipPath
       clipPathUnits="userSpaceOnUse"
       id="clipPath1298"><path
         d="M 63,141 H 400 V 341 H 63 Z"
         id="path1296"
         inkscape:connector-curvature="0" /></clipPath><mask
       maskUnits="userSpaceOnUse"
       x="0"
       y="0"
       width="1"
       height="1"
       id="mask1300"><g
         id="g1306"><g
           clip-path="url(#clipPath1298)"
           id="g1304"><path
             d="M 63,141 H 400 V 341 H 63 Z"
             style="fill:#000000;fill-opacity:0.1506;fill-rule:nonzero;stroke:none"
             id="path1302"
             inkscape:connector-curvature="0" /></g></g></mask><clipPath
       clipPathUnits="userSpaceOnUse"
       id="clipPath1314"><path
         d="M 63,141 H 400 V 341 H 63 Z"
         id="path1312"
         inkscape:connector-curvature="0" /></clipPath><clipPath
       clipPathUnits="userSpaceOnUse"
       id="clipPath1318"><path
         d="M 63,141 H 400 V 341 H 63 Z"
         id="path1316"
         inkscape:connector-curvature="0" /></clipPath><clipPath
       clipPathUnits="userSpaceOnUse"
       id="clipPath1342"><path
         d="m 197.496,371.094 h 67.383 v 28.113 h -67.383 z"
         id="path1340"
         inkscape:connector-curvature="0" /></clipPath><clipPath
       clipPathUnits="userSpaceOnUse"
       id="clipPath1350"><path
         d="m 2572.8808,-1458.7847 h 192.0504 v 81.9039 h -192.0504 z"
         id="path1348"
         inkscape:connector-curvature="0" /></clipPath><linearGradient
       x1="2642.811"
       y1="-1497.9214"
       x2="2642.811"
       y2="-1422.7117"
       gradientUnits="userSpaceOnUse"
       spreadMethod="pad"
       id="linearGradient1356"><stop
         style="stop-opacity:1;stop-color:#ffffff"
         offset="0"
         id="stop1352" /><stop
         style="stop-opacity:0;stop-color:#ffffff"
         offset="1"
         id="stop1354" /></linearGradient><mask
       maskUnits="userSpaceOnUse"
       x="0"
       y="0"
       width="1"
       height="1"
       id="mask1358"><g
         id="g1364"><g
           clip-path="url(#clipPath1350)"
           id="g1362"><path
             d="m 2572.8808,-1458.7847 h 192.0504 v 81.9039 h -192.0504 z"
             style="fill:url(#linearGradient1356);stroke:none"
             id="path1360"
             inkscape:connector-curvature="0" /></g></g></mask><linearGradient
       x1="2642.811"
       y1="-1497.9214"
       x2="2642.811"
       y2="-1422.7117"
       gradientUnits="userSpaceOnUse"
       spreadMethod="pad"
       id="linearGradient1372"><stop
         style="stop-opacity:1;stop-color:#1a1a1a"
         offset="0"
         id="stop1368" /><stop
         style="stop-opacity:1;stop-color:#1a1a1a"
         offset="1"
         id="stop1370" /></linearGradient><clipPath
       clipPathUnits="userSpaceOnUse"
       id="clipPath1998"><path
         d="m 197.496,391.344 h 67.387 v 10.5 h -67.387 z"
         id="path1996"
         inkscape:connector-curvature="0" /></clipPath><clipPath
       clipPathUnits="userSpaceOnUse"
       id="clipPath2006"><path
         d="m 2573.9488,-1459.7042 h 192.0505 v 83.1897 h -192.0505 z"
         id="path2004"
         inkscape:connector-curvature="0" /></clipPath><linearGradient
       x1="2642.811"
       y1="-1497.9214"
       x2="2642.811"
       y2="-1422.7117"
       gradientUnits="userSpaceOnUse"
       spreadMethod="pad"
       id="linearGradient2012"><stop
         style="stop-opacity:1;stop-color:#ffffff"
         offset="0"
         id="stop2008" /><stop
         style="stop-opacity:0;stop-color:#ffffff"
         offset="1"
         id="stop2010" /></linearGradient><mask
       maskUnits="userSpaceOnUse"
       x="0"
       y="0"
       width="1"
       height="1"
       id="mask2014"><g
         id="g2020"><g
           clip-path="url(#clipPath2006)"
           id="g2018"><path
             d="m 2573.9488,-1459.7042 h 192.0505 v 83.1897 h -192.0505 z"
             style="fill:url(#linearGradient2012);stroke:none"
             id="path2016"
             inkscape:connector-curvature="0" /></g></g></mask><linearGradient
       x1="2642.811"
       y1="-1497.9214"
       x2="2642.811"
       y2="-1422.7117"
       gradientUnits="userSpaceOnUse"
       spreadMethod="pad"
       id="linearGradient2028"
       gradientTransform="matrix(-0.354074,0,0,-0.132228,1176.3673,208.98624)"><stop
         style="stop-opacity:1;stop-color:#1a1a1a"
         offset="0"
         id="stop2024" /><stop
         style="stop-opacity:1;stop-color:#1a1a1a"
         offset="1"
         id="stop2026" /></linearGradient><clipPath
       clipPathUnits="userSpaceOnUse"
       id="clipPath2040"><path
         d="M 467,324 H 582 V 462 H 467 Z"
         id="path2038"
         inkscape:connector-curvature="0" /></clipPath><mask
       maskUnits="userSpaceOnUse"
       x="0"
       y="0"
       width="1"
       height="1"
       id="mask2042"><g
         id="g2048"><g
           clip-path="url(#clipPath2040)"
           id="g2046"><path
             d="M 467,324 H 582 V 462 H 467 Z"
             style="fill:#000000;fill-opacity:0.15;fill-rule:nonzero;stroke:none"
             id="path2044"
             inkscape:connector-curvature="0" /></g></g></mask><clipPath
       clipPathUnits="userSpaceOnUse"
       id="clipPath2056"><path
         d="M 467,324 H 582 V 462 H 467 Z"
         id="path2054"
         inkscape:connector-curvature="0" /></clipPath><clipPath
       clipPathUnits="userSpaceOnUse"
       id="clipPath2060"><path
         d="M 467,324 H 582 V 462 H 467 Z"
         id="path2058"
         inkscape:connector-curvature="0" /></clipPath><clipPath
       clipPathUnits="userSpaceOnUse"
       id="clipPath2082"><path
         d="m 40,266 h 75 v 89 H 40 Z"
         id="path2080"
         inkscape:connector-curvature="0" /></clipPath><mask
       maskUnits="userSpaceOnUse"
       x="0"
       y="0"
       width="1"
       height="1"
       id="mask2084"><g
         id="g2090"><g
           clip-path="url(#clipPath2082)"
           id="g2088"><path
             d="m 40,266 h 75 v 89 H 40 Z"
             style="fill:#000000;fill-opacity:0.15;fill-rule:nonzero;stroke:none"
             id="path2086"
             inkscape:connector-curvature="0" /></g></g></mask><clipPath
       clipPathUnits="userSpaceOnUse"
       id="clipPath2098"><path
         d="m 40,266 h 75 v 89 H 40 Z"
         id="path2096"
         inkscape:connector-curvature="0" /></clipPath><clipPath
       clipPathUnits="userSpaceOnUse"
       id="clipPath2102"><path
         d="m 40,266 h 75 v 89 H 40 Z"
         id="path2100"
         inkscape:connector-curvature="0" /></clipPath><clipPath
       clipPathUnits="userSpaceOnUse"
       id="clipPath2124"><path
         d="M 467,64 H 582 V 202 H 467 Z"
         id="path2122"
         inkscape:connector-curvature="0" /></clipPath><mask
       maskUnits="userSpaceOnUse"
       x="0"
       y="0"
       width="1"
       height="1"
       id="mask2126"><g
         id="g2132"><g
           clip-path="url(#clipPath2124)"
           id="g2130"><path
             d="M 467,64 H 582 V 202 H 467 Z"
             style="fill:#000000;fill-opacity:0.15;fill-rule:nonzero;stroke:none"
             id="path2128"
             inkscape:connector-curvature="0" /></g></g></mask><clipPath
       clipPathUnits="userSpaceOnUse"
       id="clipPath2140"><path
         d="M 467,64 H 582 V 202 H 467 Z"
         id="path2138"
         inkscape:connector-curvature="0" /></clipPath><clipPath
       clipPathUnits="userSpaceOnUse"
       id="clipPath2144"><path
         d="M 467,64 H 582 V 202 H 467 Z"
         id="path2142"
         inkscape:connector-curvature="0" /></clipPath><clipPath
       clipPathUnits="userSpaceOnUse"
       id="clipPath2166"><path
         d="M 637,64 H 752 V 202 H 637 Z"
         id="path2164"
         inkscape:connector-curvature="0" /></clipPath><mask
       maskUnits="userSpaceOnUse"
       x="0"
       y="0"
       width="1"
       height="1"
       id="mask2168"><g
         id="g2174"><g
           clip-path="url(#clipPath2166)"
           id="g2172"><path
             d="M 637,64 H 752 V 202 H 637 Z"
             style="fill:#000000;fill-opacity:0.15;fill-rule:nonzero;stroke:none"
             id="path2170"
             inkscape:connector-curvature="0" /></g></g></mask><clipPath
       clipPathUnits="userSpaceOnUse"
       id="clipPath2182"><path
         d="M 637,64 H 752 V 202 H 637 Z"
         id="path2180"
         inkscape:connector-curvature="0" /></clipPath><clipPath
       clipPathUnits="userSpaceOnUse"
       id="clipPath2186"><path
         d="M 637,64 H 752 V 202 H 637 Z"
         id="path2184"
         inkscape:connector-curvature="0" /></clipPath></defs><sodipodi:namedview
     pagecolor="#ffffff"
     bordercolor="#666666"
     borderopacity="1"
     objecttolerance="10"
     gridtolerance="10"
     guidetolerance="10"
     inkscape:pageopacity="0"
     inkscape:pageshadow="2"
     inkscape:window-width="1920"
     inkscape:window-height="1017"
     id="namedview4"
     showgrid="false"
     fit-margin-top="0"
     fit-margin-left="0"
     fit-margin-right="0"
     fit-margin-bottom="0"
     inkscape:zoom="3.2163554"
     inkscape:cx="145.34799"
     inkscape:cy="69.58215"
     inkscape:window-x="-8"
     inkscape:window-y="-8"
     inkscape:window-maximized="1"
     inkscape:current-layer="g10" /><g
     id="g10"
     inkscape:groupmode="layer"
     inkscape:label="bookrenew-handout (1)"
     transform="matrix(1.3333333,0,0,1.3333333,-296.29819,-184.53992)"><g
       id="g1346"
       transform="matrix(0.354074,0,0,0.354074,-713.98917,887.51716)" /><g
       id="g1366"
       mask="url(#mask1358)"
       transform="matrix(0.354074,0,0,0.354074,-713.98917,887.51716)"><path
         d="m 197.496,371.094 h 67.383 v 28.113 h -67.383 z"
         style="fill:url(#linearGradient1372);stroke:none"
         id="path1374"
         inkscape:connector-curvature="0" /></g><g
       id="g2002"
       transform="matrix(-0.354074,0,0,-0.132228,1176.3673,208.98624)" /><g
       id="g10172"
       style="fill:#ffffff"><g
         transform="matrix(2.0667705,0,0,2.0667705,-303.98503,-195.04719)"
         id="g10146"
         style="fill:#ffffff"><path
           inkscape:connector-curvature="0"
           id="path1970"
           style="fill:#ffffff;fill-opacity:1;fill-rule:nonzero;stroke:none"
           d="m 301.71673,172.2307 c -0.605,0.004 -1.098,0.496 -1.098,1.101 v 26.856 c 0,0.605 -0.492,1.098 -1.101,1.098 h -26.852 c -0.609,0 -1.101,0.492 -1.101,1.101 v 5.063 c 0,0.609 0.492,1.101 1.101,1.101 h 34.117 c 0.606,0 1.098,-0.492 1.102,-1.101 v -34.118 c 0,-0.605 -0.496,-1.101 -1.102,-1.101 z" /><path
           inkscape:connector-curvature="0"
           id="path1972"
           style="fill:#ffffff;fill-opacity:1;fill-rule:nonzero;stroke:none"
           d="m 261.77173,161.3397 c -0.61,0 -1.102,0.492 -1.102,1.098 v 34.117 c 0,0.61 0.492,1.102 1.102,1.102 h 34.117 c 0.605,0 1.098,-0.492 1.098,-1.102 v -34.117 c 0,-0.606 -0.493,-1.098 -1.098,-1.098 z m 6.164,7.262 h 21.789 v 21.789 z" /></g><g
         transform="matrix(0.9078708,0,0,0.9078708,-71.226279,71.665024)"
         id="g10157"
         style="fill:#ffffff"><path
           inkscape:connector-curvature="0"
           id="path1974"
           style="fill:#ffffff;fill-opacity:1;fill-rule:nonzero;stroke:none"
           d="m 323.22873,208.4107 v -18.922 h 3.922 v 7.203 c 0.488,-0.477 1.039,-0.863 1.656,-1.156 0.625,-0.289 1.351,-0.438 2.187,-0.438 0.676,0 1.305,0.152 1.891,0.453 0.582,0.293 1.082,0.727 1.5,1.297 0.426,0.563 0.758,1.262 1,2.094 0.238,0.824 0.359,1.762 0.359,2.812 0,0.981 -0.14,1.887 -0.422,2.719 -0.273,0.836 -0.652,1.563 -1.14,2.188 -0.492,0.617 -1.078,1.093 -1.766,1.437 -0.687,0.344 -1.449,0.516 -2.281,0.516 -0.387,0 -0.734,-0.043 -1.047,-0.125 -0.305,-0.074 -0.586,-0.176 -0.844,-0.313 -0.261,-0.133 -0.5,-0.301 -0.718,-0.5 -0.211,-0.195 -0.414,-0.406 -0.61,-0.625 l -0.14,0.656 c -0.063,0.274 -0.172,0.461 -0.329,0.563 -0.156,0.094 -0.359,0.141 -0.609,0.141 z m 6.39,-10.36 c -0.281,0 -0.543,0.028 -0.781,0.078 -0.23,0.055 -0.445,0.133 -0.641,0.235 -0.199,0.105 -0.382,0.234 -0.546,0.39 -0.168,0.149 -0.336,0.325 -0.5,0.532 v 5.562 c 0.289,0.324 0.609,0.555 0.953,0.688 0.351,0.125 0.718,0.187 1.093,0.187 0.364,0 0.696,-0.066 1,-0.203 0.301,-0.145 0.563,-0.375 0.782,-0.688 0.226,-0.32 0.406,-0.734 0.531,-1.234 0.125,-0.508 0.187,-1.125 0.187,-1.844 0,-0.695 -0.054,-1.281 -0.156,-1.75 -0.094,-0.468 -0.234,-0.847 -0.422,-1.14 -0.179,-0.289 -0.398,-0.5 -0.656,-0.625 -0.25,-0.125 -0.531,-0.188 -0.844,-0.188 z" /><path
           inkscape:connector-curvature="0"
           id="path1976"
           style="fill:#ffffff;fill-opacity:1;fill-rule:nonzero;stroke:none"
           d="m 343.73673,195.0977 c 0.988,0 1.89,0.156 2.703,0.469 0.82,0.312 1.523,0.762 2.109,1.344 0.594,0.586 1.051,1.293 1.375,2.125 0.32,0.824 0.484,1.757 0.484,2.796 0,1.043 -0.164,1.985 -0.484,2.829 -0.324,0.836 -0.781,1.543 -1.375,2.125 -0.586,0.586 -1.289,1.039 -2.109,1.359 -0.813,0.312 -1.715,0.469 -2.703,0.469 -1,0 -1.915,-0.157 -2.735,-0.469 -0.824,-0.32 -1.531,-0.773 -2.125,-1.359 -0.594,-0.582 -1.058,-1.289 -1.39,-2.125 -0.325,-0.844 -0.485,-1.786 -0.485,-2.829 0,-1.039 0.16,-1.972 0.485,-2.796 0.332,-0.832 0.796,-1.539 1.39,-2.125 0.594,-0.582 1.301,-1.032 2.125,-1.344 0.82,-0.313 1.735,-0.469 2.735,-0.469 z m 0,10.609 c 0.894,0 1.554,-0.316 1.984,-0.953 0.426,-0.632 0.641,-1.601 0.641,-2.906 0,-1.289 -0.215,-2.254 -0.641,-2.891 -0.43,-0.632 -1.09,-0.953 -1.984,-0.953 -0.93,0 -1.61,0.321 -2.047,0.953 -0.43,0.637 -0.641,1.602 -0.641,2.891 0,1.305 0.211,2.274 0.641,2.906 0.437,0.637 1.117,0.953 2.047,0.953 z" /><path
           inkscape:connector-curvature="0"
           id="path1978"
           style="fill:#ffffff;fill-opacity:1;fill-rule:nonzero;stroke:none"
           d="m 358.39673,195.0977 c 0.988,0 1.89,0.156 2.703,0.469 0.82,0.312 1.523,0.762 2.109,1.344 0.594,0.586 1.051,1.293 1.375,2.125 0.32,0.824 0.485,1.757 0.485,2.796 0,1.043 -0.165,1.985 -0.485,2.829 -0.324,0.836 -0.781,1.543 -1.375,2.125 -0.586,0.586 -1.289,1.039 -2.109,1.359 -0.813,0.312 -1.715,0.469 -2.703,0.469 -1,0 -1.914,-0.157 -2.735,-0.469 -0.824,-0.32 -1.531,-0.773 -2.125,-1.359 -0.593,-0.582 -1.058,-1.289 -1.39,-2.125 -0.325,-0.844 -0.485,-1.786 -0.485,-2.829 0,-1.039 0.16,-1.972 0.485,-2.796 0.332,-0.832 0.797,-1.539 1.39,-2.125 0.594,-0.582 1.301,-1.032 2.125,-1.344 0.821,-0.313 1.735,-0.469 2.735,-0.469 z m 0,10.609 c 0.894,0 1.554,-0.316 1.984,-0.953 0.426,-0.632 0.641,-1.601 0.641,-2.906 0,-1.289 -0.215,-2.254 -0.641,-2.891 -0.43,-0.632 -1.09,-0.953 -1.984,-0.953 -0.93,0 -1.61,0.321 -2.047,0.953 -0.43,0.637 -0.641,1.602 -0.641,2.891 0,1.305 0.211,2.274 0.641,2.906 0.437,0.637 1.117,0.953 2.047,0.953 z" /><path
           inkscape:connector-curvature="0"
           id="path1980"
           style="fill:#ffffff;fill-opacity:1;fill-rule:nonzero;stroke:none"
           d="m 371.13873,189.4887 v 10.609 h 0.578 c 0.25,0 0.437,-0.031 0.562,-0.094 0.133,-0.07 0.258,-0.195 0.375,-0.375 l 2.485,-3.687 c 0.133,-0.227 0.301,-0.391 0.5,-0.485 0.195,-0.101 0.445,-0.156 0.75,-0.156 h 3.594 l -3.391,4.672 c -0.156,0.219 -0.328,0.414 -0.516,0.578 -0.187,0.168 -0.39,0.321 -0.609,0.453 0.375,0.282 0.703,0.664 0.984,1.141 l 3.688,6.266 h -3.547 c -0.293,0 -0.547,-0.047 -0.766,-0.141 -0.211,-0.102 -0.382,-0.273 -0.515,-0.516 l -2.485,-4.64 c -0.117,-0.207 -0.234,-0.344 -0.359,-0.407 -0.125,-0.062 -0.32,-0.093 -0.578,-0.093 h -0.75 v 5.797 h -3.922 v -18.922 z" /><path
           inkscape:connector-curvature="0"
           id="path1982"
           style="fill:#ffffff;fill-opacity:1;fill-rule:nonzero;stroke:none"
           d="m 386.66973,208.4107 v -13.11 h 2.328 c 0.196,0 0.36,0.024 0.485,0.063 0.132,0.031 0.242,0.086 0.328,0.156 0.093,0.062 0.16,0.156 0.203,0.281 0.051,0.117 0.094,0.258 0.125,0.422 l 0.219,1.234 c 0.476,-0.75 1.015,-1.335 1.609,-1.765 0.594,-0.426 1.242,-0.641 1.953,-0.641 0.602,0 1.086,0.141 1.453,0.422 l -0.515,2.891 c -0.032,0.179 -0.102,0.304 -0.204,0.375 -0.093,0.074 -0.23,0.109 -0.406,0.109 -0.136,0 -0.304,-0.019 -0.5,-0.062 -0.187,-0.039 -0.433,-0.063 -0.734,-0.063 -1.024,0 -1.828,0.547 -2.422,1.641 v 8.047 z" /><path
           inkscape:connector-curvature="0"
           id="path1984"
           style="fill:#ffffff;fill-opacity:1;fill-rule:nonzero;stroke:none"
           d="m 402.69673,195.0977 c 0.875,0 1.672,0.137 2.391,0.406 0.719,0.274 1.332,0.668 1.844,1.188 0.519,0.512 0.926,1.14 1.219,1.89 0.289,0.743 0.437,1.579 0.437,2.516 0,0.305 -0.016,0.547 -0.047,0.734 -0.023,0.18 -0.07,0.325 -0.14,0.438 -0.063,0.105 -0.153,0.18 -0.266,0.219 -0.106,0.043 -0.246,0.062 -0.422,0.062 h -7.562 c 0.125,1.106 0.457,1.903 1,2.391 0.539,0.492 1.234,0.734 2.078,0.734 0.457,0 0.847,-0.051 1.172,-0.156 0.332,-0.113 0.625,-0.238 0.875,-0.375 0.257,-0.133 0.5,-0.254 0.718,-0.359 0.219,-0.114 0.442,-0.172 0.672,-0.172 0.313,0 0.551,0.117 0.719,0.343 l 1.125,1.407 c -0.398,0.461 -0.828,0.836 -1.297,1.125 -0.469,0.293 -0.953,0.523 -1.453,0.687 -0.492,0.168 -0.984,0.281 -1.484,0.344 -0.493,0.062 -0.954,0.094 -1.391,0.094 -0.93,0 -1.793,-0.149 -2.594,-0.438 -0.804,-0.301 -1.508,-0.75 -2.109,-1.344 -0.606,-0.593 -1.086,-1.328 -1.438,-2.203 -0.343,-0.875 -0.515,-1.894 -0.515,-3.062 0,-0.875 0.148,-1.703 0.453,-2.485 0.301,-0.781 0.726,-1.468 1.281,-2.062 0.563,-0.594 1.238,-1.063 2.031,-1.406 0.801,-0.344 1.703,-0.516 2.703,-0.516 z m 0.079,2.703 c -0.75,0 -1.34,0.215 -1.766,0.641 -0.418,0.43 -0.695,1.043 -0.828,1.844 h 4.89 c 0,-0.313 -0.043,-0.614 -0.125,-0.907 -0.074,-0.3 -0.203,-0.566 -0.39,-0.797 -0.18,-0.226 -0.414,-0.414 -0.703,-0.562 -0.293,-0.145 -0.653,-0.219 -1.078,-0.219 z" /><path
           inkscape:connector-curvature="0"
           id="path1986"
           style="fill:#ffffff;fill-opacity:1;fill-rule:nonzero;stroke:none"
           d="m 410.86173,208.4107 v -13.11 h 2.421 c 0.25,0 0.454,0.059 0.61,0.172 0.164,0.106 0.285,0.266 0.359,0.484 l 0.219,0.766 c 0.258,-0.238 0.523,-0.457 0.797,-0.656 0.269,-0.207 0.554,-0.379 0.859,-0.516 0.313,-0.144 0.645,-0.254 1,-0.328 0.352,-0.082 0.742,-0.125 1.172,-0.125 0.719,0 1.352,0.125 1.906,0.375 0.551,0.25 1.016,0.602 1.391,1.047 0.375,0.437 0.66,0.965 0.859,1.578 0.196,0.606 0.297,1.266 0.297,1.984 v 8.329 h -3.922 v -8.329 c 0,-0.644 -0.152,-1.144 -0.453,-1.5 -0.293,-0.351 -0.726,-0.531 -1.297,-0.531 -0.429,0 -0.836,0.094 -1.218,0.281 -0.375,0.18 -0.735,0.422 -1.079,0.735 v 9.344 z" /><path
           inkscape:connector-curvature="0"
           id="path1988"
           style="fill:#ffffff;fill-opacity:1;fill-rule:nonzero;stroke:none"
           d="m 431.13473,195.0977 c 0.875,0 1.672,0.137 2.391,0.406 0.718,0.274 1.332,0.668 1.843,1.188 0.52,0.512 0.926,1.14 1.219,1.89 0.289,0.743 0.438,1.579 0.438,2.516 0,0.305 -0.016,0.547 -0.047,0.734 -0.024,0.18 -0.071,0.325 -0.141,0.438 -0.062,0.105 -0.152,0.18 -0.266,0.219 -0.105,0.043 -0.246,0.062 -0.421,0.062 h -7.563 c 0.125,1.106 0.457,1.903 1,2.391 0.539,0.492 1.234,0.734 2.078,0.734 0.457,0 0.848,-0.051 1.172,-0.156 0.332,-0.113 0.625,-0.238 0.875,-0.375 0.258,-0.133 0.5,-0.254 0.719,-0.359 0.219,-0.114 0.441,-0.172 0.672,-0.172 0.312,0 0.55,0.117 0.718,0.343 l 1.125,1.407 c -0.398,0.461 -0.828,0.836 -1.296,1.125 -0.469,0.293 -0.954,0.523 -1.454,0.687 -0.492,0.168 -0.984,0.281 -1.484,0.344 -0.492,0.062 -0.953,0.094 -1.391,0.094 -0.929,0 -1.793,-0.149 -2.593,-0.438 -0.805,-0.301 -1.508,-0.75 -2.11,-1.344 -0.605,-0.593 -1.086,-1.328 -1.437,-2.203 -0.344,-0.875 -0.516,-1.894 -0.516,-3.062 0,-0.875 0.149,-1.703 0.453,-2.485 0.301,-0.781 0.727,-1.468 1.282,-2.062 0.562,-0.594 1.238,-1.063 2.031,-1.406 0.801,-0.344 1.703,-0.516 2.703,-0.516 z m 0.078,2.703 c -0.75,0 -1.34,0.215 -1.766,0.641 -0.418,0.43 -0.695,1.043 -0.828,1.844 h 4.891 c 0,-0.313 -0.043,-0.614 -0.125,-0.907 -0.074,-0.3 -0.203,-0.566 -0.391,-0.797 -0.179,-0.226 -0.414,-0.414 -0.703,-0.562 -0.293,-0.145 -0.652,-0.219 -1.078,-0.219 z" /><path
           inkscape:connector-curvature="0"
           id="path1990"
           style="fill:#ffffff;fill-opacity:1;fill-rule:nonzero;stroke:none"
           d="m 437.78273,195.3007 h 3.141 c 0.27,0 0.504,0.063 0.703,0.188 0.207,0.125 0.332,0.293 0.375,0.5 l 1.313,5.875 c 0.101,0.449 0.195,0.886 0.281,1.312 0.082,0.418 0.16,0.828 0.234,1.235 0.114,-0.407 0.235,-0.817 0.36,-1.235 0.132,-0.414 0.265,-0.851 0.39,-1.312 l 1.641,-5.891 c 0.051,-0.195 0.172,-0.359 0.359,-0.484 0.196,-0.133 0.426,-0.203 0.688,-0.203 h 1.734 c 0.281,0 0.52,0.07 0.719,0.203 0.195,0.125 0.32,0.289 0.375,0.484 l 1.562,5.891 c 0.125,0.449 0.243,0.886 0.36,1.312 0.125,0.418 0.242,0.84 0.359,1.266 0.063,-0.414 0.141,-0.832 0.235,-1.25 0.101,-0.426 0.207,-0.867 0.312,-1.328 l 1.391,-5.875 c 0.039,-0.207 0.16,-0.375 0.359,-0.5 0.195,-0.125 0.426,-0.188 0.688,-0.188 h 2.968 l -4.062,13.11 h -3.188 c -0.168,0 -0.312,-0.047 -0.437,-0.141 -0.117,-0.102 -0.203,-0.273 -0.266,-0.516 l -1.875,-6.531 c -0.086,-0.301 -0.168,-0.594 -0.25,-0.875 -0.074,-0.289 -0.137,-0.578 -0.187,-0.859 -0.063,0.293 -0.133,0.586 -0.203,0.875 -0.075,0.293 -0.157,0.586 -0.25,0.875 l -1.891,6.515 c -0.125,0.438 -0.402,0.657 -0.828,0.657 h -3.047 z" /></g></g></g></svg>