<?xml version="1.0" encoding="UTF-8"?>
<svg width="8.4667mm"
     height="8.4665mm"
     version="1.1"
     viewBox="0 0 8.4667 8.4665"
     xmlns="http://www.w3.org/2000/svg">
 <path transform="scale(.26458)"
       d="m0.74805 0a0.7454 0.7454 0 0 0-0.74609 0.74609v23.123a0.7454 0.7454 0 0 0 0.74609 0.74609h23.123a0.7454 0.7454 0 0 0 0.74609-0.74609v-23.123a0.7454 0.7454 0 0 0-0.74609-0.74609h-18.945-4.1777zm4.1777 4.9238h14.768v14.768l-14.768-14.768zm22.898 2.4609a0.7454 0.7454 0 0 0-0.74609 0.74609v18.201a0.7454 0.7454 0 0 1-0.74609 0.74414h-18.201a0.7454 0.7454 0 0 0-0.74414 0.74609v3.4336a0.7454 0.7454 0 0 0 0.74414 0.74414h23.125a0.7454 0.7454 0 0 0 0.74609-0.74414v-23.125a0.7454 0.7454 0 0 0-0.74609-0.74609h-3.4316z"
       fill="#fff"
       stroke-width="0.0"
       style="paint-order:stroke fill markers"/>
</svg>
