<?xml version="1.0" encoding="UTF-8"?>
<svg width="10.594mm" height="8.2637mm" version="1.1" viewBox="0 0 10.594 8.2637" xmlns="http://www.w3.org/2000/svg">
 <path transform="scale(.26458)" d="m31.66 0.0097656c-0.8583 0.090792-1.6211 0.81055-1.6211 1.8359v3.75h-28.125c-1.0938 0-1.875 0.8594-1.875 1.875v1.25c0 1.0938 0.78128 1.875 1.875 1.875h28.125v3.75c0 1.7187 1.9531 2.5 3.125 1.3281l6.25-6.25c0.78123-0.70311 0.78123-1.875 0-2.5781l-6.25-6.25c-0.43946-0.46875-0.98892-0.64041-1.5039-0.58594zm-23.297 15c-0.52871-0.054476-1.0879 0.11719-1.5273 0.58594l-6.25 6.25c-0.78127 0.70314-0.78127 1.875 0 2.5781l6.25 6.25c1.1719 1.1719 3.2031 0.39062 3.2031-1.3281v-3.75h28.125c1.0156 0 1.875-0.78128 1.875-1.875v-1.25c0-1.0156-0.8594-1.875-1.875-1.875h-28.125v-3.75c0-1.0254-0.79459-1.7451-1.6758-1.8359z" fill="#268faf" stroke-width="0" style="font-feature-settings:normal;font-variant-caps:normal;font-variant-ligatures:normal;font-variant-numeric:normal"/>
</svg>
